# xmcd CD database file
#
# Track frame offsets:
#	150
#	19567
#	36830
#	50479
#	70994
#	84171
#	113931
#	126438
#	147533
#	160948
#	183417
#	197239
#	217147
#	231079
#	241276
#	257074
#	273824
#
# Disc length: 3879 seconds
#
# Revision: 0
# Processed by: cddbd v1.5.2PL0 Copyright (c) Steve Scherf et al.
# Submitted via: CDex 1.70beta2
#
DISCID=f90f2511
DTITLE=Carlos Henrique Machado Freitas - Vale dos Tambores CD2
DYEAR=2008
DGENRE=Jazz
TTITLE0=Tambor de Crioula
TTITLE1=Cantiga - Carlos Henrique
TTITLE2=Tambus pra Manuel Congo
TTITLE3=Do Barro a Madeira
TTITLE4=Viva São Benedito
TTITLE5=Mestre Caraura
TTITLE6=Lenda do timburibá
TTITLE7=Batuque de Umbigada
TTITLE8=Arrepia Tatunda
TTITLE9=Melodia da Paixão
TTITLE10=Sapeca Iaiá
TTITLE11=Pedra Sonora
TTITLE12=Baile de Cabana
TTITLE13=O Caipira
TTITLE14=Lundu de Clementina
TTITLE15=Todas as Cordas
TTITLE16=Xinhá
EXTD=YEAR: 2008
EXTT0=
EXTT1=
EXTT2=
EXTT3=
EXTT4=
EXTT5=
EXTT6=
EXTT7=
EXTT8=
EXTT9=
EXTT10=
EXTT11=
EXTT12=
EXTT13=
EXTT14=
EXTT15=
EXTT16=
PLAYORDER=
